<svg version="1.1" id="Layer_1" xmlns="http://www.w3.org/2000/svg" xmlns:xlink="http://www.w3.org/1999/xlink" x="0px" y="0px"
	 width="100%" viewBox="0 0 98 95" enable-background="new 0 0 98 95" xml:space="preserve">
<path fill="#FCFEFE" opacity="1.000000" stroke="none" 
	d="
M63.000000,96.000000 
	C42.000004,96.000000 21.500008,96.000000 1.000008,96.000000 
	C1.000005,64.333344 1.000005,32.666687 1.000003,1.000021 
	C33.666653,1.000014 66.333305,1.000014 98.999969,1.000007 
	C98.999977,32.666645 98.999977,64.333290 98.999985,95.999969 
	C87.166664,96.000000 75.333336,96.000000 63.000000,96.000000 
M17.153774,8.999872 
	C11.703331,9.877858 9.375198,12.123886 9.230915,17.267578 
	C9.087545,22.378651 9.309004,27.499956 9.157640,33.487164 
	C9.079965,42.452217 12.151753,50.569603 20.690401,53.499073 
	C27.128738,55.707958 27.057299,59.206284 26.819941,64.063011 
	C26.714546,66.219589 26.736135,68.391533 26.853037,70.548210 
	C27.354031,79.790932 34.112263,86.917824 43.141712,87.798195 
	C50.982723,88.562691 59.126186,82.673096 60.930614,74.090591 
	C61.941666,69.281654 61.800117,64.194862 61.849548,59.229996 
	C61.892689,54.896729 62.522575,51.130459 67.533020,50.093246 
	C73.695251,48.817600 76.594849,50.354416 78.438705,56.330757 
	C78.164314,56.515804 77.873329,56.680519 77.617996,56.888905 
	C72.694237,60.907448 71.958153,66.081642 75.719696,70.194115 
	C79.339302,74.151405 85.360825,74.124741 88.869545,70.135895 
	C92.480797,66.030479 91.633537,60.662476 86.839844,56.803383 
	C85.838776,55.997478 85.035194,54.946266 84.082756,53.283131 
	C80.690086,45.872669 74.291405,42.498699 66.819893,44.180592 
	C60.013294,45.712799 56.046997,51.031498 55.924713,58.854435 
	C55.878010,61.842495 55.966808,64.832993 55.901764,67.820381 
	C55.734009,75.525307 51.380989,81.152946 45.094753,81.872795 
	C39.766491,82.482933 34.998180,78.309288 32.857632,70.124428 
	C33.238659,65.085541 33.619686,60.046658 34.763866,55.041676 
	C45.230537,52.296070 50.181713,45.168541 50.197342,32.354225 
	C50.264042,27.368343 50.518280,22.376097 50.349400,17.398209 
	C50.143917,11.341538 47.289474,8.967324 40.294907,9.020136 
	C37.827232,8.836269 35.169376,9.197181 35.828659,12.258653 
	C36.077492,13.414119 39.207829,13.949056 41.878433,14.938176 
	C42.656467,16.239347 44.005951,17.497293 44.108234,18.849577 
	C44.451576,23.388798 44.350140,27.961658 44.156845,33.371189 
	C43.885464,35.164543 43.771980,36.999107 43.316544,38.744431 
	C40.757271,48.552013 31.039600,52.798943 22.407434,47.929222 
	C16.589922,44.647358 15.840093,38.804089 15.110682,32.289291 
	C15.173440,27.746653 15.044801,23.188246 15.416914,18.671091 
	C15.526923,17.335684 17.049728,16.116659 18.734470,14.983079 
	C20.448137,13.910180 22.161804,12.837282 23.875469,11.764382 
	C22.548029,10.837893 21.271259,9.820769 19.865301,9.034719 
	C19.381777,8.764389 18.575726,9.070946 17.153774,8.999872 
z"/>
<path fill="#686093" opacity="1.000000" stroke="none" 
	d="
M78.983948,55.908745 
	C76.594849,50.354416 73.695251,48.817600 67.533020,50.093246 
	C62.522575,51.130459 61.892689,54.896729 61.849548,59.229996 
	C61.800117,64.194862 61.941666,69.281654 60.930614,74.090591 
	C59.126186,82.673096 50.982723,88.562691 43.141712,87.798195 
	C34.112263,86.917824 27.354031,79.790932 26.853037,70.548210 
	C26.736135,68.391533 26.714546,66.219589 26.819941,64.063011 
	C27.057299,59.206284 27.128738,55.707958 20.690401,53.499073 
	C12.151753,50.569603 9.079965,42.452217 9.654055,33.133736 
	C11.744879,32.869267 13.339288,32.958221 14.933697,33.047176 
	C15.840093,38.804089 16.589922,44.647358 22.407434,47.929222 
	C31.039600,52.798943 40.757271,48.552013 43.316544,38.744431 
	C43.771980,36.999107 43.885464,35.164543 44.665909,33.075546 
	C46.768837,32.910213 48.362705,33.040520 49.956573,33.170830 
	C50.181713,45.168541 45.230537,52.296070 33.969032,55.019794 
	C30.332472,57.373569 30.053841,67.647797 32.738663,71.057663 
	C34.998180,78.309288 39.766491,82.482933 45.094753,81.872795 
	C51.380989,81.152946 55.734009,75.525307 55.901764,67.820381 
	C55.966808,64.832993 55.878010,61.842495 55.924713,58.854435 
	C56.046997,51.031498 60.013294,45.712799 66.819893,44.180592 
	C74.291405,42.498699 80.690086,45.872669 83.880798,53.908360 
	C82.113869,54.991974 80.548912,55.450359 78.983948,55.908745 
z"/>
<path fill="#1C9EE6" opacity="1.000000" stroke="none" 
	d="
M78.711327,56.119751 
	C80.548912,55.450359 82.113869,54.991974 83.909714,54.270844 
	C85.035194,54.946266 85.838776,55.997478 86.839844,56.803383 
	C91.633537,60.662476 92.480797,66.030479 88.869545,70.135895 
	C85.360825,74.124741 79.339302,74.151405 75.719696,70.194115 
	C71.958153,66.081642 72.694237,60.907448 77.617996,56.888905 
	C77.873329,56.680519 78.164314,56.515804 78.711327,56.119751 
M85.979370,63.708061 
	C84.481445,62.584682 82.921921,60.528736 81.504387,60.622375 
	C80.291740,60.702473 78.262390,63.337772 78.386139,64.677391 
	C78.518951,66.115128 80.743179,67.359680 82.054741,68.688530 
	C83.372284,67.284050 84.689819,65.879562 85.979370,63.708061 
z"/>
<path fill="#1FA3DF" opacity="1.000000" stroke="none" 
	d="
M50.076958,32.762527 
	C48.362705,33.040520 46.768837,32.910213 44.796955,32.650772 
	C44.350140,27.961658 44.451576,23.388798 44.108234,18.849577 
	C44.005951,17.497293 42.656467,16.239347 41.432091,14.453705 
	C41.012157,12.370508 41.038567,10.771782 41.064976,9.173057 
	C47.289474,8.967324 50.143917,11.341538 50.349400,17.398209 
	C50.518280,22.376097 50.264042,27.368343 50.076958,32.762527 
z"/>
<path fill="#1EA3E2" opacity="1.000000" stroke="none" 
	d="
M15.022190,32.668236 
	C13.339288,32.958221 11.744879,32.869267 9.760473,32.698544 
	C9.309004,27.499956 9.087545,22.378651 9.230915,17.267578 
	C9.375198,12.123886 11.703331,9.877858 17.560303,9.465929 
	C17.952925,11.569424 17.939020,13.206863 17.925114,14.844303 
	C17.049728,16.116659 15.526923,17.335684 15.416914,18.671091 
	C15.044801,23.188246 15.173440,27.746653 15.022190,32.668236 
z"/>
<path fill="#5A689A" opacity="1.000000" stroke="none" 
	d="
M18.329792,14.913691 
	C17.939020,13.206863 17.952925,11.569424 17.941923,9.522974 
	C18.575726,9.070946 19.381777,8.764389 19.865301,9.034719 
	C21.271259,9.820769 22.548029,10.837893 23.875469,11.764383 
	C22.161804,12.837282 20.448137,13.910180 18.329792,14.913691 
z"/>
<path fill="#707AB2" opacity="1.000000" stroke="none" 
	d="
M32.798149,70.591049 
	C30.053841,67.647797 30.332472,57.373569 33.587456,55.002842 
	C33.619686,60.046658 33.238659,65.085541 32.798149,70.591049 
z"/>
<path fill="#666296" opacity="1.000000" stroke="none" 
	d="
M40.679939,9.096596 
	C41.038567,10.771782 41.012157,12.370508 41.005188,14.368048 
	C39.207829,13.949056 36.077492,13.414119 35.828659,12.258653 
	C35.169376,9.197181 37.827232,8.836269 40.679939,9.096596 
z"/>
<path fill="#3466F9" opacity="1.000000" stroke="none" 
	d="
M85.993362,64.091568 
	C84.689819,65.879562 83.372284,67.284050 82.054741,68.688530 
	C80.743179,67.359680 78.518951,66.115128 78.386139,64.677391 
	C78.262390,63.337772 80.291740,60.702473 81.504387,60.622375 
	C82.921921,60.528736 84.481445,62.584682 85.993362,64.091568 
z"/>
</svg>